<?xml version="1.0" standalone="no"?>
<!DOCTYPE svg PUBLIC "-//W3C//DTD SVG 20010904//EN"
 "http://www.w3.org/TR/2001/REC-SVG-20010904/DTD/svg10.dtd">
<svg version="1.0" xmlns="http://www.w3.org/2000/svg"
 width="290.000000pt" height="56.000000pt" viewBox="0 0 290.000000 56.000000"
 preserveAspectRatio="xMidYMid meet">

<g transform="translate(0.000000,56.000000) scale(0.100000,-0.100000)"
fill="#000000" stroke="none">
<path d="M42 496 c-18 -40 -16 -146 3 -146 12 0 15 -15 15 -72 0 -40 3 -111 6
-158 4 -47 4 -83 1 -80 -3 3 -7 29 -8 58 -2 35 -7 52 -16 52 -9 0 -13 -17 -13
-60 l0 -60 230 0 230 0 0 100 0 100 -62 2 c-35 1 -80 1 -100 0 l-38 -2 0 62
c0 52 3 65 20 76 17 10 20 23 20 76 l0 63 -97 6 c-54 4 -113 7 -130 7 l-33 0
0 -55 c0 -30 -3 -55 -8 -55 -4 0 -6 18 -4 39 2 21 2 47 0 57 -2 14 -5 12 -16
-10z m58 -350 c-5 -5 -13 -6 -17 -2 -4 4 -1 11 6 15 7 5 10 14 6 21 -4 6 -3
62 1 123 l9 112 3 -129 c2 -78 -1 -133 -8 -140z m270 2 c0 -5 -18 -8 -41 -8
-24 0 -38 4 -34 10 7 11 75 9 75 -2z"/>
<path d="M535 352 c-3 -3 -5 -47 -5 -99 l0 -93 65 0 c58 0 65 2 65 20 0 16 -7
20 -35 20 l-34 0 -3 77 c-3 71 -5 77 -26 78 -12 1 -24 -1 -27 -3z"/>
<path d="M695 352 c-3 -3 -5 -48 -5 -99 l0 -94 28 3 27 3 0 94 c0 91 -1 94
-23 96 -12 1 -24 -1 -27 -3z"/>
<path d="M790 258 l0 -98 55 0 c42 0 60 5 75 20 24 24 25 38 5 67 -10 14 -12
24 -5 28 14 9 12 51 -2 63 -7 5 -39 12 -71 14 l-57 3 0 -97z m79 53 c16 -10 6
-31 -15 -31 -8 0 -14 9 -14 20 0 22 7 25 29 11z m11 -91 c0 -13 -7 -20 -20
-20 -13 0 -20 7 -20 20 0 13 7 20 20 20 13 0 20 -7 20 -20z"/>
<path d="M974 351 c-2 -2 -4 -46 -4 -98 l0 -93 60 0 c53 0 60 2 60 19 0 15 -8
21 -32 23 -46 4 -53 38 -9 38 24 0 31 4 31 19 0 14 -8 21 -27 23 -39 5 -40 26
-1 30 24 2 33 8 33 22 0 15 -8 19 -53 20 -30 0 -56 -1 -58 -3z"/>
<path d="M1124 351 c-2 -2 -4 -46 -4 -98 0 -93 0 -93 25 -93 22 0 25 4 25 35
0 19 4 35 9 35 5 0 18 -16 30 -35 15 -25 27 -35 46 -35 31 0 31 2 1 47 -22 31
-23 38 -10 50 17 18 18 67 2 81 -13 10 -116 21 -124 13z m84 -60 c-5 -24 -38
-27 -38 -3 0 10 3 21 6 25 11 11 35 -5 32 -22z"/>
<path d="M1390 258 l0 -98 55 0 c48 0 55 2 55 20 0 16 -7 20 -30 20 -23 0 -30
4 -30 20 0 16 7 20 30 20 23 0 30 4 30 20 0 16 -7 20 -30 20 -20 0 -30 5 -30
15 0 10 10 15 30 15 23 0 30 5 30 19 0 16 -9 20 -55 23 l-55 3 0 -97z"/>
<path d="M1784 351 c-58 -25 -74 -122 -29 -167 20 -20 33 -25 68 -22 35 2 43
7 45 25 3 21 0 22 -29 16 -37 -7 -59 14 -59 57 0 35 17 50 56 50 20 0 34 6 38
16 4 9 5 19 2 21 -9 9 -73 12 -92 4z"/>
<path d="M1915 352 c-3 -3 -5 -47 -5 -99 0 -93 0 -93 25 -93 23 0 25 4 25 41
0 39 1 40 33 37 29 -3 32 -6 35 -40 3 -33 7 -38 28 -38 l25 0 -3 98 c-3 89 -5
97 -23 97 -15 0 -21 -8 -25 -35 -4 -31 -8 -35 -35 -35 -27 0 -31 4 -35 35 -5
32 -28 49 -45 32z"/>
<path d="M2165 350 c-6 -9 -65 -179 -65 -187 0 -2 13 -3 29 -3 20 0 30 6 34
20 7 28 63 28 72 0 4 -14 15 -20 35 -20 l29 0 -33 98 c-31 93 -34 97 -63 100
-17 2 -34 -2 -38 -8z m49 -82 c5 -24 3 -28 -15 -28 -17 0 -20 4 -15 23 3 12 6
29 6 37 0 21 16 0 24 -32z"/>
<path d="M2325 351 c-3 -2 -5 -47 -5 -98 0 -92 1 -94 23 -91 20 3 22 8 21 65
0 34 2 61 5 58 4 -2 20 -31 36 -64 27 -57 31 -61 62 -61 l33 0 0 99 c0 88 -2
99 -17 97 -15 -1 -19 -13 -23 -66 l-5 -65 -35 64 c-30 55 -39 65 -63 66 -15 0
-30 -1 -32 -4z"/>
<path d="M2593 350 c-38 -16 -56 -55 -50 -107 6 -59 33 -83 92 -83 68 0 75 6
75 61 l0 49 -45 0 c-35 0 -45 -4 -45 -16 0 -9 9 -18 20 -21 28 -7 26 -35 -2
-31 -33 5 -55 49 -40 82 10 22 18 26 52 26 27 0 43 5 47 15 3 9 3 18 0 21 -10
11 -82 14 -104 4z"/>
<path d="M2754 351 c-2 -2 -4 -46 -4 -98 l0 -93 55 0 c48 0 55 2 55 20 0 16
-7 20 -30 20 -23 0 -30 4 -30 20 0 16 7 20 30 20 23 0 30 4 30 20 0 16 -7 20
-30 20 -20 0 -30 5 -30 15 0 10 10 15 30 15 24 0 30 4 30 23 0 20 -5 22 -51
22 -28 0 -53 -2 -55 -4z"/>
<path d="M1530 345 c0 -3 12 -23 26 -45 25 -38 26 -41 10 -65 -54 -83 -52 -75
-20 -75 22 0 33 8 47 32 l18 32 21 -32 c15 -24 27 -32 50 -32 l29 0 -33 46
-33 46 28 49 27 49 -28 0 c-22 0 -32 -7 -41 -27 l-13 -28 -22 28 c-18 23 -66
39 -66 22z"/>
<path d="M1307 204 c-4 -4 -7 -16 -7 -26 0 -13 7 -18 26 -18 21 0 25 4 22 22
-3 23 -27 35 -41 22z"/>
</g>
</svg>
