<?xml version="1.0" standalone="no"?>
<!DOCTYPE svg PUBLIC "-//W3C//DTD SVG 20010904//EN"
 "http://www.w3.org/TR/2001/REC-SVG-20010904/DTD/svg10.dtd">
<svg version="1.0" xmlns="http://www.w3.org/2000/svg"
 width="50.000000pt" height="60.000000pt" viewBox="0 0 50.000000 60.000000"
 preserveAspectRatio="xMidYMid meet">

<g transform="translate(0.000000,60.000000) scale(0.100000,-0.100000)"
fill="#000000" stroke="none">
<path d="M58 517 l-2 -72 -4 70 -3 70 -15 -34 c-8 -18 -14 -64 -14 -102 0 -62
2 -69 20 -69 19 0 20 -7 20 -192 l0 -191 107 6 c58 4 153 7 210 7 l103 0 0
115 0 115 -47 2 c-27 1 -70 3 -98 3 l-50 0 -3 74 c-3 65 0 75 18 88 17 12 20
25 20 88 l0 74 -52 5 c-29 3 -88 7 -130 10 l-78 4 -2 -71z m42 -222 c0 -131
-2 -155 -15 -155 -8 0 -15 5 -15 10 0 6 5 10 10 10 6 0 10 55 10 145 0 80 2
145 5 145 3 0 5 -70 5 -155z m265 -145 c4 -6 -12 -10 -39 -10 -25 0 -46 5 -46
10 0 6 18 10 39 10 22 0 43 -4 46 -10z"/>
<path d="M33 153 c-9 -3 -13 -29 -13 -79 0 -59 3 -74 15 -74 12 0 15 16 15 80
0 44 -1 80 -2 79 -2 0 -9 -3 -15 -6z"/>
</g>
</svg>
